Coordinates
version=1
nRows=17
nColumns=36
inDegrees=yes

Units are S.I. units (second, meters, Newtons, ...)
If the header above contains a line with 'inDegrees', this indicates whether rotational values are in degrees (yes) or radians (no).

endheader
time	pelvis_tilt	pelvis_list	pelvis_rotation	pelvis_tx	pelvis_ty	pelvis_tz	hip_flexion_r	hip_adduction_r	hip_rotation_r	knee_angle_r	knee_angle_r_beta	ankle_angle_r	subtalar_angle_r	mtp_angle_r	hip_flexion_l	hip_adduction_l	hip_rotation_l	knee_angle_l	knee_angle_l_beta	ankle_angle_l	subtalar_angle_l	mtp_angle_l	lumbar_extension	lumbar_bending	lumbar_rotation	arm_flex_r	arm_add_r	arm_rot_r	elbow_flex_r	pro_sup_r	arm_flex_l	arm_add_l	arm_rot_l	elbow_flex_l	pro_sup_l
      0.40000000	     -2.46114574	     -0.34044728	      5.53081264	      0.34337892	      1.04494736	     -0.31421303	     -1.92014264	      4.27272473	     -3.80034480	      5.67540877	      0.09905457	      6.02654619	    -13.88611347	     -6.32084338	     30.86617709	     -3.65323803	     -3.41819820	     48.97467636	      0.85476935	     -3.24519668	     -2.53429822	     -6.32084338	    -13.99223188	      8.49337509	      9.06739756	      1.44240781	    -10.86942764	    -14.00517717	     40.95836854	    109.74808723	    -15.44309916	    -14.59113576	     -3.94857601	     41.24258725	    108.79453692
      0.41000000	     -2.71049847	     -0.50706037	      5.51632556	      0.35239975	      1.04384048	     -0.31429197	     -2.40690232	      4.49907742	     -3.58107664	      5.29821352	      0.09247127	      6.12128522	    -13.80853557	     -6.33017580	     31.18412855	     -3.60538102	     -3.54379544	     45.87610037	      0.80068900	     -2.90376769	     -2.80436937	     -6.33017580	    -13.69907667	      8.58820708	      9.42458320	      1.56183224	    -10.95391438	    -13.86419524	     41.23663808	    109.76793024	    -15.48792680	    -14.47939163	     -4.24744388	     41.53274561	    108.77960012
      0.42000000	     -2.74224862	     -0.60183270	      5.45167444	      0.36155846	      1.04295783	     -0.31431938	     -3.15742257	      4.65376568	     -3.37033813	      4.90946125	      0.08568626	      6.23012293	    -13.69440482	     -6.34266512	     31.10203015	     -3.53856775	     -3.80053902	     42.54663087	      0.74257879	     -2.80353167	     -3.28105774	     -6.34266512	    -13.66282148	      8.59044271	      9.78049711	      1.72168953	    -11.00956430	    -13.68000283	     41.57938660	    109.79039031	    -15.49700484	    -14.27833197	     -4.76245258	     41.89323290	    108.74768033
      0.43000000	     -2.86334494	     -0.85925192	      5.41498755	      0.37073732	      1.04167761	     -0.31439813	     -3.79250450	      4.97365362	     -3.20846825	      4.53829186	      0.07920814	      6.34745543	    -13.52555924	     -6.35336965	     31.10624739	     -3.63119003	     -4.02513977	     39.17970531	      0.68381486	     -2.74181547	     -3.68602869	     -6.35336965	    -13.51646983	      8.74176188	     10.05726241	      1.87735993	    -11.08129483	    -13.52120723	     41.89986308	    109.81306184	    -15.55796734	    -14.03055627	     -5.25492851	     42.24940212	    108.72706214
      0.44000000	     -2.81465772	     -1.02713964	      5.37692498	      0.37998844	      1.04052455	     -0.31460930	     -4.63696349	      5.18109569	     -3.27284997	      4.14223115	      0.07229557	      6.68803169	    -12.93558867	     -6.40072814	     30.78328042	     -3.58930236	     -4.26219669	     35.59846911	      0.62131049	     -3.26022633	     -4.78673850	     -6.40072814	    -13.59315544	      8.78279381	     10.08941231	      2.26525389	    -11.11673893	    -13.09411498	     42.11906270	    109.82520930	    -15.83446947	    -13.56767752	     -6.65481306	     42.95547008	    108.73297082
      0.45000000	     -3.10664996	     -1.43560843	      5.31781855	      0.38918530	      1.03855825	     -0.31468183	     -5.05219289	      5.62491548	     -3.03913323	      3.83430846	      0.06692131	      6.78235816	    -12.71721691	     -6.40913644	     30.91289226	     -3.82602721	     -4.46474642	     32.19393089	      0.56189009	     -3.00314365	     -4.67364575	     -6.40913644	    -13.20115141	      9.06423138	     10.37422787	      2.37137248	    -11.19524649	    -12.91179613	     42.44102686	    109.85992186	    -15.85568645	    -13.32694651	     -6.93617415	     43.18693083	    108.74596163
      0.46000000	     -3.05238286	     -1.66844665	      5.25622250	      0.39863575	      1.03707209	     -0.31492343	     -5.90976836	      5.87897631	     -3.17623583	      3.45147966	      0.06023968	      7.22068869	    -11.91854212	     -6.45439615	     30.46531196	     -3.88798526	     -4.82700765	     28.51932243	      0.49775608	     -3.25210757	     -5.05800714	     -6.45439615	    -13.24885954	      9.13715126	     10.43492395	      2.66476324	    -11.24233253	    -12.50434017	     42.70844241	    109.91489116	    -16.01676401	    -12.85829217	     -8.08925453	     43.70650732	    108.83885437
      0.47000000	     -3.42636411	     -2.20385579	      5.16420861	      0.40792306	      1.03463935	     -0.31502920	     -6.20157469	      6.42535950	     -2.97113067	      3.20601214	      0.05595547	      7.29460333	    -11.66529979	     -6.46087719	     30.63559553	     -4.24972044	     -5.09340212	     25.11838647	      0.43839855	     -2.96623224	     -4.65490523	     -6.46087719	    -12.73487319	      9.52592686	     10.66029879	      2.75927258	    -11.29957678	    -12.34385119	     43.01929909	    109.95320097	    -16.07135512	    -12.57294742	     -8.29710449	     43.87834834	    108.85607916
      0.48000000	     -3.38544592	     -2.44545354	      5.04039997	      0.41751059	      1.03291085	     -0.31517776	     -7.03017011	      6.66653234	     -3.08949226	      2.85929666	      0.04990414	      7.68381959	    -10.92585539	     -6.48605814	     30.06050924	     -4.33414528	     -5.49875736	     21.33930534	      0.37244114	     -2.89552143	     -4.04666725	     -6.48605814	    -12.78107515	      9.54570607	     10.81337088	      2.97515550	    -11.32749552	    -11.97714990	     43.34626217	    110.02771474	    -16.04520483	    -12.16171537	     -9.14288768	     44.13357570	    108.89327404
      0.49000000	     -3.60389983	     -2.86210125	      4.91480536	      0.42704964	      1.03059541	     -0.31532024	     -7.49964978	      7.07081735	     -3.14041188	      2.63969875	      0.04607143	      8.02619925	    -10.24319852	     -6.51015309	     29.84385522	     -4.55079440	     -5.72114076	     17.72924840	      0.30943376	     -2.61376326	     -3.11003175	     -6.51015309	    -12.47589561	      9.73819549	     10.91773310	      3.15644726	    -11.35048577	    -11.62580258	     43.58872074	    110.02212961	    -16.08173322	    -11.79008819	     -9.70951293	     44.33101492	    108.87922892
      0.50000000	     -4.07800965	     -3.40383170	      4.74043522	      0.43655377	      1.02778411	     -0.31535076	     -7.64656210	      7.58612321	     -2.94961142	      2.49713181	      0.04358317	      8.14481761	     -9.83021284	     -6.51904329	     29.93603823	     -4.87497321	     -5.72340041	     14.25519352	      0.24880006	     -2.26355138	     -2.04812890	     -6.51904329	    -11.83492771	     10.02729006	     11.07950595	      3.24469775	    -11.34557232	    -11.41237955	     43.84845523	    109.97817681	    -16.10717031	    -11.49768767	     -9.91909925	     44.45343337	    108.81452268
      0.51000000	     -4.13369135	     -3.73568607	      4.59947538	      0.44639831	      1.02565526	     -0.31551346	     -8.28245999	      7.89249779	     -3.26038609	      2.33833499	      0.04081164	      8.80253132	     -8.62909671	     -6.56397136	     29.38538212	     -5.03175546	     -5.88761464	     10.64369011	      0.18576744	     -1.72253587	     -0.12444329	     -6.56397136	    -11.74872126	     10.06893954	     11.06160953	      3.51416475	    -11.35330765	    -10.81624469	     43.94028328	    110.08258400	    -16.11289971	    -11.10981338	    -10.62203214	     44.57834775	    108.90983873
      0.52000000	     -4.57657696	     -4.23270632	      4.39547671	      0.45609397	      1.02286025	     -0.31547336	     -8.44150712	      8.35946049	     -3.10479135	      2.26132470	      0.03946756	      8.89613377	     -8.31913777	     -6.57373258	     29.33014272	     -5.33181743	     -5.58842909	      7.29493343	      0.12732061	     -1.37057480	      1.35606628	     -6.57373258	    -11.18221750	     10.24073125	     11.19418168	      3.58181788	    -11.32265200	    -10.57946107	     44.14775826	    110.08170435	    -16.03103642	    -10.87249370	    -10.74215859	     44.50023651	    108.87411670
      0.53000000	     -4.69903164	     -4.59307217	      4.18066823	      0.46609261	      1.02060559	     -0.31546059	     -8.98931877	      8.68876668	     -3.21963885	      2.15467430	      0.03760616	      9.23418485	     -7.49643952	     -6.60263961	     28.92221756	     -5.59552542	     -5.66680376	      4.23701440	      0.07394985	     -0.79587286	      3.54409061	     -6.60263961	    -10.99789043	     10.25497384	     11.25672663	      3.75941927	    -11.26286596	    -10.10093225	     44.28526915	    110.14851859	    -15.86417613	    -10.63033196	    -10.87607756	     44.31437035	    108.89751397
      0.54000000	     -4.99380305	     -5.03188749	      3.96706661	      0.47602061	      1.01807117	     -0.31540084	     -9.28721080	      9.09182566	     -3.24674630	      2.15911247	      0.03768362	      9.49982229	     -6.85788511	     -6.63172724	     28.96801482	     -5.97495040	     -5.93872911	      1.94579964	      0.03396061	     -0.02449131	      5.94244806	     -6.63172724	    -10.62536660	     10.31405045	     11.28926858	      3.88515911	    -11.19996789	     -9.67817628	     44.41933613	    110.19796366	    -15.67601619	    -10.43700436	    -10.89039712	     44.03993587	    108.89956714
      0.55000000	     -5.37918036	     -5.51062629	      3.72653454	      0.48592627	      1.01540449	     -0.31522778	     -9.44942247	      9.53067982	     -3.19228068	      2.23352227	      0.03898232	      9.68850494	     -6.30873223	     -6.66908063	     29.57500322	     -6.48910752	     -7.07315759	      0.89089153	      0.01554899	      1.32941760	      9.20640346	     -6.66908063	    -10.15247202	     10.36805596	     11.32879047	      3.97961334	    -11.09836634	     -9.30655785	     44.50984388	    110.26878687	    -15.47685284	    -10.29461399	    -10.79497728	     43.79005099	    108.92920301
      0.56000000	     -5.70962673	     -5.93147768	      3.48536665	      0.49590450	      1.01292552	     -0.31511970	     -9.66212196	      9.89883479	     -3.17047245	      2.33149501	      0.04069226	      9.79268612	     -5.80783612	     -6.70498832	     30.27808025	     -6.96178440	     -8.24687465	      0.55535164	      0.00969271	      2.57708496	     11.97054603	     -6.70498832	     -9.76728667	     10.34061558	     11.34180496	      4.06849287	    -10.98579587	     -8.95161122	     44.62961830	    110.33058698	    -15.18862055	    -10.17751855	    -10.62502864	     43.40893420	    108.92779797
